<svg xmlns="http://www.w3.org/2000/svg" width="235" height="60" viewBox="0 0 235 60">
  <path fill="#22201E" d="M71.311 43.82c-.174-.253-.26-.566-.26-.939l.08-6.721c.08-3.253.12-5.773.12-7.56 0-6.213-.347-10.973-1.04-14.28.4-.613.906-.92 1.52-.92.986 0 1.886.22 2.7.66a5.913 5.913 0 0 1 2.02 1.78c1.04 1.547 1.56 3.28 1.56 5.2 0 2-.427 3.787-1.28 5.36-.854 1.574-2.094 2.8-3.72 3.68l.08 4.041.08 2.119c.026.454.04 1.107.04 1.961.08 1.786.12 3.239.12 4.359 0 .507-.107.906-.32 1.199-.213.294-.547.441-1 .441a.803.803 0 0 1-.7-.38zm3.92-18.759c.493-1.08.74-2.3.74-3.66v-.04c0-.613-.067-1.386-.2-2.32-.08-.32-.227-.64-.44-.96a8.946 8.946 0 0 1-.36-.56c-.187-.266-.68-.68-1.48-1.24l-1.04-.76c0 1.36.08 3.467.24 6.32l.24 6.32c1.04-.987 1.806-2.02 2.3-3.1zM80.73 42.76c0-.639.413-.959 1.24-.959h.44l.4.039c.213 0 .36-.065.44-.199.08-.133.12-.373.12-.721 0-.453-.027-1.16-.08-2.119-.08-.641-.174-1.787-.28-3.44-.24-4.08-.36-7.16-.36-9.24 0-.747.013-1.426.04-2.04l.04-2.04c0-.88-.04-1.613-.12-2.2-.426.106-.733.159-.92.159-.64 0-.96-.32-.96-.96 0-.32.2-.6.6-.84.4-.24.906-.413 1.52-.52 1.066-.213 2.013-.32 2.84-.32.32 0 .593.114.82.34.226.227.34.487.34.78 0 .294-.087.547-.26.76s-.394.32-.66.32c-.16 0-.294-.013-.4-.04h-.32c-.267 0-.46.06-.58.18-.12.12-.18.34-.18.66 0 2.587.16 6.48.48 11.681.053.959.16 2.373.32 4.239.133 1.228.2 2.479.2 3.761v1.52c.16-.026.426-.04.8-.04 1.12 0 1.68.467 1.68 1.399v.24l-1 .68c-.027 0-.114.008-.26.021-.147.014-.42.021-.82.021-.854.053-1.4.08-1.64.08-2.319-.001-3.48-.401-3.48-1.202zm20.721 1.1c-.16-.173-.28-.474-.36-.899l-.24-.76V42c0-.879-.914-3.879-2.74-9-1.827-5.12-3.26-8.906-4.3-11.359V41.76l.16.281c.026.053.08.146.16.279.08.134.12.268.12.4 0 .347-.12.64-.36.88-.24.239-.534.36-.88.36-.854 0-1.28-.813-1.28-2.44l-.04-6.84c-.027-2.054-.04-4.346-.04-6.88 0-.853.04-2.093.12-3.72.08-1.68.12-2.92.12-3.72 0-1.253.48-2.24 1.44-2.96v.24c.16-.053.266-.08.32-.08.613 0 1.386 1.067 2.32 3.2a54.9 54.9 0 0 1 2.02 5.4c.6 1.894 1.393 4.587 2.38 8.08l.4 1.44c.613 2.159 1.08 3.706 1.4 4.64.533-5.732.8-12.506.8-20.32v-.52a3.129 3.129 0 0 1-.04-.52c0-.8.32-1.2.96-1.2.373 0 .66.147.86.44.2.293.3.667.3 1.12v3a318.15 318.15 0 0 1-.48 13.36c-.267 4.8-.586 7.507-.96 8.12-.773.213-1.253.32-1.44.32-.32.001-.561-.087-.72-.26zm9.859.3a1.248 1.248 0 0 1-.46-.88v-1.84a7.628 7.628 0 0 1-.04-.84c0-.56-.04-1.413-.12-2.56l-.08-2.561c0-1.307.04-3.253.12-5.84.106-2.32.16-4.267.16-5.84 0-.373-.04-.933-.12-1.68-.08-.773-.12-1.333-.12-1.68 0-1.893.56-2.84 1.68-2.84.88 0 1.9.174 3.06.52 1.16.347 1.74.76 1.74 1.24 0 .267-.114.514-.34.74s-.5.407-.82.54c-1.12-.4-2.134-.667-3.04-.8.026.4.04.974.04 1.72 0 1.067-.014 2.027-.04 2.88-.08 1.28-.12 2.24-.12 2.88l.12.64.64-.04c.213-.026.48-.04.8-.04 1.28 0 1.92.374 1.92 1.12 0 .294-.12.54-.36.74-.24.2-.547.3-.92.3-.48 0-.854-.026-1.12-.08h-1c.053.694.08 1.708.08 3.04 0 1.334-.014 2.534-.04 3.601-.08 1.627-.12 2.84-.12 3.64 0 1.494.026 2.24.08 2.24l1.32-.04c.453-.026 1-.04 1.64-.04 1.013 0 1.52.32 1.52.96 0 .374-.167.66-.5.86-.333.199-.74.3-1.22.3h-3.4c-.347.001-.66-.12-.94-.36zm11.98-1.72c-.347-1.413-.634-3.166-.86-5.26-.227-2.093-.46-4.74-.7-7.94a184.38 184.38 0 0 0-.56-6.68c-.187-1.973-.414-3.24-.68-3.8.24-.48.626-.72 1.16-.72.854 0 1.28.88 1.28 2.64 0 2.08.28 5.12.84 9.12.56 3.974.88 6.868.96 8.68l.2-1.359c.266-1.787.5-3.474.7-5.061.2-1.586.366-3.3.5-5.14.187-2.053.28-4.08.28-6.08l1.08-.48c.346 0 .633.087.86.26.226.174.34.42.34.74v.32c.426 1.494.78 3.126 1.06 4.9s.526 3.86.74 6.259c.159 1.841.347 3.561.56 5.16.506-3.572.76-7.973.76-13.2 0-.826.107-1.84.32-3.04.187-1.226.28-2.226.28-3a2.15 2.15 0 0 1-.12-.68c0-.64.4-.96 1.2-.96.32 0 .573.08.76.24.187.16.28.387.28.68v.6c0 .4-.04.747-.12 1.04v.2c-.347 1.067-.521 2.294-.521 3.68v2.92c0 1.68-.199 4.187-.6 7.52-.427 3.254-.641 5.681-.641 7.28V42c0 .614-.066 1.135-.199 1.561-.16.533-.547.8-1.16.8-.427 0-.754-.14-.98-.42s-.34-.634-.34-1.06c0-2.16-.227-4.961-.68-8.4-.24-1.547-.494-3.106-.76-4.68l-.64-4.2c-.107.773-.16 1.534-.16 2.28 0 1.494-.107 3.467-.32 5.92a68.335 68.335 0 0 1-1 7.16c-.507 2.586-1.08 3.879-1.72 3.879-.533 0-.999-.799-1.399-2.4zm18.399 1.661c-.587-.44-1.067-1.033-1.44-1.78-.773-1.626-1.254-3.4-1.439-5.32a39.94 39.94 0 0 1-.36-5.24c0-.319.013-.586.04-.799v-.72c0-.133-.014-.2-.04-.2v-.72l.04-2.8c.026-.853.133-2.213.32-4.08.133-1.28.439-2.52.92-3.72.186-.533.426-.94.72-1.22.293-.28.626-.42 1-.42 1.066 0 2.026.194 2.88.58a6.076 6.076 0 0 1 2.16 1.62c.533.667.986 1.487 1.36 2.46.373.974.64 2.007.8 3.1.16 1.12.24 2.307.24 3.56v.32c0 .827.013 1.574.04 2.24l.04 2.28c0 7.68-1.787 11.52-5.36 11.52-.695-.002-1.335-.221-1.921-.661zm3.081-1.601c.399-.386.706-.912.92-1.58.506-1.359.812-2.826.92-4.399.133-1.36.2-2.533.2-3.521 0-1.199-.094-2.772-.28-4.72-.16-2.053-.24-3.586-.24-4.6v-.72c-.054-1.013-.394-1.893-1.02-2.64-.627-.746-1.394-1.12-2.3-1.12-.907 0-1.508.52-1.801 1.56-.267.827-.399 1.894-.399 3.2 0 .507.013.934.04 1.28v1.08l-.08 1.84c-.054.56-.08 1.174-.08 1.84 0 1.44.04 2.867.12 4.28.106 2 .373 3.947.8 5.841.426 1.973 1.053 2.959 1.88 2.959.48 0 .919-.193 1.32-.58zm11.319 1.601c-.587-.44-1.067-1.033-1.44-1.78-.773-1.626-1.254-3.4-1.439-5.32a39.94 39.94 0 0 1-.36-5.24c0-.319.013-.586.04-.799v-.72c0-.133-.014-.2-.04-.2v-.72l.04-2.8c.026-.853.133-2.213.32-4.08.133-1.28.439-2.52.92-3.72.186-.533.426-.94.72-1.22.293-.28.626-.42 1-.42 1.066 0 2.026.194 2.88.58a6.076 6.076 0 0 1 2.16 1.62c.533.667.986 1.487 1.36 2.46.373.974.64 2.007.8 3.1.16 1.12.24 2.307.24 3.56v.32c0 .827.013 1.574.04 2.24l.04 2.28c0 7.68-1.787 11.52-5.36 11.52-.696-.002-1.335-.221-1.921-.661zm3.08-1.601c.399-.386.706-.912.92-1.58.506-1.359.812-2.826.92-4.399.133-1.36.2-2.533.2-3.521 0-1.199-.094-2.772-.28-4.72-.16-2.053-.24-3.586-.24-4.6v-.72c-.054-1.013-.394-1.893-1.02-2.64-.627-.746-1.394-1.12-2.3-1.12-.907 0-1.508.52-1.801 1.56-.267.827-.399 1.894-.399 3.2 0 .507.013.934.04 1.28v1.08l-.08 1.84c-.054.56-.08 1.174-.08 1.84 0 1.44.04 2.867.12 4.28.106 2 .373 3.947.8 5.841.426 1.973 1.053 2.959 1.88 2.959.48 0 .92-.193 1.32-.58zm8.799-3.5l.08-6.319c.026-1.866.04-3.96.04-6.28 0-.853-.08-2.173-.24-3.96-.134-1.946-.199-3.133-.199-3.56 0-.346.146-.653.439-.92.293-.266.613-.4.96-.4.934 0 1.833.207 2.7.62a7.276 7.276 0 0 1 2.3 1.74c1.413 1.627 2.347 3.414 2.8 5.36.24.987.36 1.96.36 2.92 0 .347-.014.667-.04.96l-.04 1.08v2.2c0 1.707-.054 3.054-.16 4.04-.16 1.334-.467 2.52-.92 3.561-.533 1.119-1.307 2.119-2.319 3-.48.399-1.094.799-1.841 1.199h-2.88c-.694-.001-1.04-1.747-1.04-5.241zm4.28 2.78a3.77 3.77 0 0 0 1.16-1.14c.267-.426.513-.967.74-1.62.226-.653.393-1.286.5-1.899.239-1.201.386-2.427.439-3.681.026-.319.04-.786.04-1.399 0-8.054-1.56-12.253-4.68-12.601-.188 1.2-.28 2.587-.28 4.16 0 1.68.106 4.614.32 8.8.187 3.707.28 6.654.28 8.84v.961a2.76 2.76 0 0 0 1.481-.421zm17.5 2.281c-.28-.254-.42-.553-.42-.9 0-.24.054-.533.16-.88.08-.373.12-.653.12-.84 0-2.373-.134-6.933-.4-13.68-.267-5.76-.399-10.306-.399-13.64 0-.24.093-.433.279-.58.187-.146.413-.22.681-.22.319 0 .6.114.84.34s.359.5.359.82c0 1.6.08 4 .24 7.2.134 3.547.2 5.947.2 7.2l.04.48v.96c.08 2.32.12 5.787.12 10.4v1.039h3.08c.56.4.84.801.84 1.201 0 .293-.1.553-.3.779s-.434.34-.7.34c-.08 0-.227-.026-.44-.08l-.159-.039c-.16.026-.414.039-.761.039h-.68a4.851 4.851 0 0 0-.64-.039c-.268.319-.641.479-1.12.479-.346 0-.66-.127-.94-.379zm15.66.019c-.294-.186-.44-.533-.44-1.039 0-.801-.133-2.16-.399-4.08l-.16-.84-3.96-.601c-.16.614-.387 1.854-.68 3.72-.16 1.307-.414 2.174-.761 2.6-.187.24-.453.361-.8.361-.319 0-.613-.101-.88-.301-.267-.199-.399-.446-.399-.74l.079-.199.04-.16c1.761-6.854 3.094-13.613 4-20.28 0-.106.014-.286.04-.54.026-.253.054-.62.08-1.1.08-.986.167-1.773.261-2.36.093-.586.246-1.026.46-1.32h1.359c.373 0 .693.087.96.26.267.174.4.42.4.74 0 2.027.28 5.04.84 9.04.533 4.107.8 6.987.8 8.64 0 .16.066.573.2 1.24.133.613.2 1.014.2 1.199 0 .188.133.986.399 2.4.24 1.279.36 2.106.36 2.48v.039c0 .587-.214.961-.64 1.12-.613.001-1.066-.092-1.359-.279zm-1.4-8.879c0-2.4-.213-5.467-.64-9.201l-.4-4.16c-1.146 6.267-1.934 11-2.359 14.201.399.266 1.573.479 3.52.64-.081-.401-.121-.894-.121-1.48zm14.32 7.48c-1.04-2-2.066-5.294-3.08-9.88a63.014 63.014 0 0 1-.72-3.48c-.96 1.92-1.44 4.24-1.44 6.96v7.4c0 .612-.267.92-.8.92-.399 0-.727-.114-.979-.341-.254-.227-.381-.539-.381-.939v-12.12c0-1.174.134-3.334.4-6.48.267-2.747.4-4.906.4-6.48.213-.506.6-.76 1.16-.76.346 0 .64.12.88.36.239.24.359.534.359.88v.12c-.347.587-.52 3.014-.52 7.28v1.44l1.479-2.92c.906-1.893 1.761-3.52 2.561-4.88.746-1.333 1.293-2 1.64-2 .427 0 .793.094 1.101.28.306.187.46.454.46.8l-.96 1.6c-2 3.227-3.12 5.094-3.36 5.6 0 .454-.014.854-.04 1.2l-.04 1.2c0 1.147.46 3.287 1.38 6.42.92 3.134 1.687 5.207 2.3 6.22l.521.721c.506.693.76 1.307.76 1.84 0 .293-.113.54-.34.74a1.15 1.15 0 0 1-.78.3c-.614-.001-1.268-.668-1.961-2.001zm7.419 1.479a1.248 1.248 0 0 1-.46-.88v-1.84a7.884 7.884 0 0 1-.04-.84c0-.56-.04-1.413-.12-2.56l-.08-2.561c0-1.307.04-3.253.12-5.84.106-2.32.16-4.267.16-5.84 0-.373-.04-.933-.12-1.68-.08-.773-.12-1.333-.12-1.68 0-1.893.561-2.84 1.681-2.84.88 0 1.899.174 3.06.52 1.16.347 1.74.76 1.74 1.24 0 .267-.114.514-.34.74-.228.227-.5.407-.82.54-1.12-.4-2.134-.667-3.04-.8.026.4.04.974.04 1.72 0 1.067-.014 2.027-.04 2.88-.08 1.28-.12 2.24-.12 2.88l.12.64.64-.04c.214-.026.48-.04.801-.04 1.279 0 1.92.374 1.92 1.12 0 .294-.12.54-.36.74-.24.2-.547.3-.92.3-.48 0-.854-.026-1.12-.08h-1c.053.694.08 1.708.08 3.04 0 1.334-.014 2.534-.04 3.601-.08 1.627-.12 2.84-.12 3.64 0 1.494.026 2.24.08 2.24l1.32-.04c.453-.026 1-.04 1.64-.04 1.014 0 1.521.32 1.521.96 0 .374-.167.66-.5.86-.334.199-.74.3-1.221.3h-3.399a1.406 1.406 0 0 1-.943-.36zM26.25 6c12.958 0 23.5 10.542 23.5 23.5S39.208 53 26.25 53 2.75 42.458 2.75 29.5 13.292 6 26.25 6m0-2C12.167 4 .75 15.417.75 29.5S12.167 55 26.25 55s25.5-11.417 25.5-25.5S40.333 4 26.25 4z"/>
  <path fill="#22201E" d="M35.279 42.604c-.023-.002-2.244-.269-4.6-1.99-.672-.491-1.762-2.128-2.762-3.284v-6.785c1 .539.892 1.025 1.299 1.322 2.854 2.085 4.751 2.418 4.962 2.449.672.102 1.274-.364 1.381-1.035a1.253 1.253 0 0 0-1.033-1.418c-.015-.002-1.491-.28-3.842-1.999-.674-.491-1.768-2.129-2.768-3.284v-5.132c1 .539.892 1.025 1.299 1.322 1.925 1.407 2.398 1.872 2.505 1.979.236.306.584.484.966.484a1.238 1.238 0 0 0 1.139-1.702c-.121-.303-.238-.589-3.213-2.764-.758-.553-2.326-2.562-3.135-3.697a1.24 1.24 0 0 0-2.127.177c-.384.792-1.602 3.045-2.613 3.965-1.271 1.157-2.337 1.636-2.35 1.642a1.241 1.241 0 0 0 .988 2.275c.058-.024 1.241-.626 2.841-2.081.304-.276.699-.624.699-.99v4.394c0 .864-1.396 2.972-2.369 3.857-.979.891-2.931 1.428-3.637 1.559-.672.125-1.07.771-.946 1.445.11.597.655 1.016 1.242 1.016.074 0 .162-.008.237-.021.331-.061 3.09-.636 4.769-2.163.303-.276.705-.623.705-.989v6.047c0 .865-1.396 2.972-2.369 3.857-.857.78-3.126 1.365-4.414 1.55-.678.098-1.102.726-1.005 1.403.089.619.643 1.065 1.25 1.065.059 0 .129-.004.189-.012.418-.061 3.946-.626 5.645-2.172.303-.276.705-.623.705-.99v11.403c0 .685.814 1.24 1.5 1.24.685 0 1.5-.556 1.5-1.24V41.296c1 .538.892 1.024 1.299 1.321 2.927 2.139 5.727 2.444 5.846 2.455.68.077 1.266-.426 1.337-1.105.071-.679-.441-1.288-1.12-1.363z"/>
</svg>
